<svg width="167" height="81" viewBox="0 0 167 81" fill="none" xmlns="http://www.w3.org/2000/svg">
<path d="M79.0578 57.676L69.2424 67.4915L67.5005 69.2334C66.6618 70.026 65.7771 70.7909 64.8831 71.4914C61.427 74.2286 57.5745 76.3576 53.4272 77.823C49.1416 79.3345 44.6532 80.1087 40.0635 80.1087C37.1419 80.1087 34.2387 79.7953 31.4185 79.1686C28.3311 78.4866 25.3173 77.4359 22.4695 76.0443C19.6769 74.671 17.041 72.9752 14.6263 70.9937C5.32705 63.3533 0 52.0725 0 40.0543C0 28.0362 5.32705 16.7738 14.6079 9.12421C17.0134 7.14269 19.6493 5.43766 22.4418 4.07364C25.2897 2.68196 28.3034 1.62208 31.4001 0.94007C34.2203 0.313357 37.1419 0 40.0635 0C43.5288 0 46.9757 0.442386 50.3028 1.31794C53.5286 2.16585 56.6437 3.42849 59.5653 5.05979C62.791 6.8662 65.7586 9.10577 68.3853 11.7324L79.0486 22.3958L76.4865 24.9579L74.4589 26.9855L63.7956 16.3222C60.7173 13.2347 57.1229 10.82 53.123 9.12421C51.6392 8.49749 50.1185 7.98138 48.5978 7.58507C45.8329 6.85698 42.9666 6.48832 40.0635 6.48832C36.9668 6.48832 33.9069 6.90306 30.9761 7.73253C29.6213 8.11041 28.2942 8.58044 27.0039 9.12421C23.004 10.82 19.4188 13.2347 16.3314 16.3222C13.2531 19.4005 10.8292 22.9948 9.1334 26.9948C7.3823 31.1237 6.49753 35.5199 6.49753 40.0543C6.49753 44.5888 7.3823 48.985 9.1334 53.1139C10.82 57.1138 13.2439 60.699 16.3314 63.7865C19.4188 66.8648 23.004 69.2887 27.0039 70.9845C28.285 71.5282 29.6213 71.9983 30.9946 72.3854C33.9254 73.2056 36.976 73.6204 40.0727 73.6204C42.985 73.6204 45.8605 73.2517 48.6162 72.5236C50.1461 72.1273 51.6668 71.602 53.1322 70.9845C56.7819 69.4453 60.0998 67.2795 62.9937 64.5699C63.2426 64.3303 63.5099 64.0814 63.7956 63.7957C64.0536 63.5377 64.3117 63.2796 64.5605 63.0031L74.4681 53.0955L79.0671 57.6853L79.0578 57.676Z" fill="#01111F"/>
<path d="M166.502 40.0636C166.502 45.4736 165.443 50.7177 163.36 55.6577C161.341 60.4225 158.457 64.7081 154.77 68.3855C151.083 72.0628 146.807 74.9475 142.033 76.9659C137.102 79.058 131.849 80.1087 126.448 80.1087C121.047 80.1087 115.389 78.9659 110.283 76.7171C105.352 74.542 100.974 71.4361 97.2692 67.5007H97.26V67.4823L78.6614 48.8836L83.2512 44.2939L101.997 63.0676L102.467 63.5377C102.55 63.6206 102.633 63.7128 102.716 63.7957C105.804 66.8832 109.389 69.2979 113.389 70.9937C117.518 72.7448 121.914 73.6296 126.448 73.6296C130.983 73.6296 135.379 72.7448 139.508 70.9937C143.508 69.3071 147.093 66.8832 150.18 63.7957C153.268 60.7175 155.682 57.1231 157.378 53.1232C159.129 48.9942 160.014 44.598 160.014 40.0636C160.014 35.5291 159.129 31.1329 157.378 27.004C155.692 23.0133 153.268 19.4189 150.18 16.3314C147.093 13.2439 143.508 10.8292 139.508 9.13342C135.37 7.38231 130.983 6.49754 126.448 6.49754C121.914 6.49754 117.527 7.38231 113.389 9.13342C109.416 10.8108 105.84 13.2163 102.771 16.2761L58.1458 60.911C55.7219 62.9755 52.9939 64.5791 50.0354 65.6943C46.9664 66.8463 43.7222 67.4362 40.4136 67.4362C39.9159 67.4362 39.4182 67.427 38.939 67.3993C31.9437 67.0307 25.4278 64.0169 20.58 58.9295C15.723 53.8236 13.041 47.1233 13.041 40.0728C13.041 33.0223 15.7138 26.322 20.58 21.2161C25.4186 16.1286 31.9345 13.1149 38.9297 12.7462C39.4274 12.7186 39.9251 12.7094 40.4136 12.7094C43.7683 12.7094 47.0493 13.3084 50.1553 14.4974C53.1506 15.6402 55.897 17.2899 58.3302 19.3912L70.2008 31.2619L67.6387 33.8241L65.6479 35.8148L55.8694 26.0455C55.6574 25.8151 55.4362 25.5754 55.1782 25.3266C54.7542 24.9026 54.3118 24.4971 53.8787 24.1285C52.0077 22.5432 49.8972 21.3175 47.6023 20.4788C45.3075 19.6401 42.8928 19.2161 40.4136 19.2161C34.8377 19.2161 29.5936 21.3912 25.6582 25.3266C21.7136 29.2712 19.5478 34.5153 19.5478 40.082C19.5478 45.6487 21.7228 50.902 25.6582 54.8466C29.6028 58.7912 34.8469 60.9571 40.4136 60.9571C42.8467 60.9571 45.2337 60.5423 47.4917 59.7313C49.7497 58.9203 51.8326 57.7313 53.6943 56.1922C54.2105 55.759 54.7081 55.3074 55.1689 54.8466C55.3533 54.6623 98.1263 11.7601 98.1263 11.7601L98.1816 11.7048C101.859 8.04589 106.135 5.17038 110.891 3.16122C115.822 1.05988 121.057 0 126.448 0C131.84 0 137.102 1.05988 142.033 3.152C146.807 5.17038 151.083 8.05511 154.77 11.7417C158.447 15.419 161.341 19.7046 163.36 24.4695C165.452 29.4094 166.502 34.6536 166.502 40.0636Z" fill="#01111F"/>
<path d="M151.377 29.3911C149.995 26.1377 148.023 23.2069 145.516 20.6909C143 18.1748 140.078 16.2025 136.816 14.82C133.442 13.3915 129.857 12.6726 126.161 12.6726C122.466 12.6726 118.567 13.4652 115.065 15.0136C111.692 16.5066 108.706 18.6356 106.171 21.3452L106.153 21.3729L106.097 21.4282H106.088L87.4805 40.036L106.153 58.7084L106.19 58.7452C108.715 61.4456 111.701 63.5654 115.065 65.0585C118.558 66.6068 122.291 67.3902 126.143 67.3902C129.995 67.3902 133.424 66.6713 136.797 65.2428C140.06 63.8603 142.981 61.888 145.497 59.372C148.013 56.8559 149.986 53.9343 151.359 50.6717C152.788 47.2985 153.506 43.7133 153.506 40.0176C153.506 36.3218 152.778 32.7366 151.359 29.3635L151.377 29.3911ZM140.926 54.8006C136.981 58.7452 131.737 60.9111 126.171 60.9111C120.604 60.9111 115.351 58.736 111.415 54.8006C111.222 54.6071 111.028 54.4043 110.844 54.2016L96.6876 40.036L110.733 25.9995C110.964 25.7414 111.194 25.511 111.425 25.2806C115.369 21.336 120.604 19.1609 126.18 19.1609C131.756 19.1609 137 21.336 140.935 25.2806C144.88 29.2252 147.046 34.4601 147.046 40.036C147.046 45.6119 144.871 50.856 140.935 54.8006H140.926Z" fill="#01111F"/>
</svg>
