<svg xmlns="http://www.w3.org/2000/svg" data-name="Layer 1" viewBox="0 0 350.09 196.44"><path fill="#007DB5" d="M20.5 170.46a.6.6 0 01.14.41v2a.57.57 0 01-.14.4.56.56 0 01-.41.15h-6.85c-.13 0-.19.06-.19.18v22a.57.57 0 01-.14.4.56.56 0 01-.41.15h-2.43a.56.56 0 01-.41-.15.53.53 0 01-.14-.4v-22.01a.17.17 0 00-.19-.18H2.77a.56.56 0 01-.41-.15.53.53 0 01-.14-.4v-2a.5.5 0 01.55-.56h17.32a.56.56 0 01.41.16zm27.41 2.77a.57.57 0 01-.4.14H34.65a.17.17 0 00-.19.19v7.85c0 .12.06.18.19.18h8.77a.52.52 0 01.55.55v2a.52.52 0 01-.55.55h-8.77c-.13 0-.19.06-.19.18v8c0 .12.06.18.19.18h12.86a.52.52 0 01.55.55v2a.52.52 0 01-.55.55h-16a.56.56 0 01-.41-.15.53.53 0 01-.14-.4v-24.73a.5.5 0 01.55-.56h16a.54.54 0 01.4.15.56.56 0 01.15.41v1.95a.56.56 0 01-.15.41zm14.54 22.16a7.6 7.6 0 01-3.17-3 8.67 8.67 0 01-1.12-4.44v-9.55a8.44 8.44 0 011.12-4.4 7.66 7.66 0 013.17-3 10.14 10.14 0 014.7-1 10.4 10.4 0 014.68 1 7.6 7.6 0 013.15 2.86 8 8 0 011.12 4.27c0 .25-.18.4-.55.45l-2.43.14h-.15a.5.5 0 01-.29-.07c-.08-.05-.11-.1-.11-.15v-.22a5.09 5.09 0 00-1.48-3.8 6.17 6.17 0 00-7.9 0 5 5 0 00-1.5 3.8v9.8a5 5 0 001.5 3.8 6.14 6.14 0 007.9 0 5.08 5.08 0 001.48-3.8.38.38 0 01.14-.33.54.54 0 01.41-.07l2.43.14c.37.06.55.12.55.19v.18a8.13 8.13 0 01-1.12 4.3 7.66 7.66 0 01-3.15 2.89 11.1 11.1 0 01-9.38 0zm39.15-24.93a.56.56 0 01.41-.15h2.43a.56.56 0 01.41.15.6.6 0 01.14.41v24.72a.57.57 0 01-.14.4.56.56 0 01-.41.15h-2.43a.56.56 0 01-.41-.15.53.53 0 01-.14-.4v-10.76a.17.17 0 00-.19-.18H90.84a.16.16 0 00-.18.18v10.76a.52.52 0 01-.55.55h-2.44a.52.52 0 01-.55-.55v-24.72a.56.56 0 01.15-.41.54.54 0 01.4-.15h2.44a.54.54 0 01.4.15.56.56 0 01.15.41v10.54a.16.16 0 00.18.18h10.43a.17.17 0 00.19-.18v-10.54a.55.55 0 01.14-.41zm15.33 25.5a.53.53 0 01-.14-.4v-24.69a.5.5 0 01.55-.56h2.36a.74.74 0 01.66.37l11.28 18.24c0 .08.09.11.14.1s.08-.07.08-.17v-18a.6.6 0 01.14-.41.56.56 0 01.41-.15h2.43a.5.5 0 01.55.56v24.74a.53.53 0 01-.14.4.56.56 0 01-.41.15h-2.39a.72.72 0 01-.67-.37l-11.27-18.38q-.08-.11-.15-.09c-.05 0-.07.07-.07.16v18.1a.57.57 0 01-.14.4.56.56 0 01-.41.15h-2.43a.56.56 0 01-.38-.15zm34.02-.62a7.91 7.91 0 01-3.21-3.12 9.2 9.2 0 01-1.14-4.62v-8.77a9.11 9.11 0 011.14-4.61 7.92 7.92 0 013.21-3.1 10 10 0 014.75-1.1 10.08 10.08 0 014.79 1.1 8 8 0 013.21 3.1 9.11 9.11 0 011.14 4.61v8.76a9.2 9.2 0 01-1.14 4.62 8 8 0 01-3.21 3.12 10.08 10.08 0 01-4.79 1.1 10 10 0 01-4.75-1.09zm8.8-3.51a5.49 5.49 0 001.55-4.09v-9a5.63 5.63 0 00-1.55-4.15 6 6 0 00-8.09 0 5.73 5.73 0 00-1.52 4.15v9a5.59 5.59 0 001.52 4.09 6.05 6.05 0 008.09 0zm16.51 4.13a.54.54 0 01-.15-.4v-24.69a.56.56 0 01.15-.41.54.54 0 01.41-.15h2.43a.52.52 0 01.4.15.56.56 0 01.15.41v22c0 .12.06.18.19.18h12.49a.52.52 0 01.4.15.54.54 0 01.15.4v2a.54.54 0 01-.15.4.52.52 0 01-.4.15h-15.66a.54.54 0 01-.41-.19zm30.22-.62a7.91 7.91 0 01-3.21-3.12 9.2 9.2 0 01-1.14-4.62v-8.77a9.11 9.11 0 011.14-4.61 7.92 7.92 0 013.21-3.1 10.89 10.89 0 019.54 0 7.92 7.92 0 013.21 3.1 9.11 9.11 0 011.14 4.61v8.76a9.2 9.2 0 01-1.14 4.62 7.91 7.91 0 01-3.21 3.12 10.89 10.89 0 01-9.54 0zm8.81-3.51a5.52 5.52 0 001.54-4.09v-9a5.66 5.66 0 00-1.54-4.15 5.47 5.47 0 00-4.06-1.56 5.39 5.39 0 00-4 1.56 5.7 5.7 0 00-1.53 4.15v9a5.55 5.55 0 001.53 4.09 5.38 5.38 0 004 1.55 5.46 5.46 0 004.06-1.55zm19.95 3.52a7.6 7.6 0 01-3.17-3 8.67 8.67 0 01-1.12-4.44v-9.42a8.6 8.6 0 011.12-4.45 7.64 7.64 0 013.17-3 11.1 11.1 0 019.38 0 7.73 7.73 0 013.15 2.86 7.64 7.64 0 011.12 4.11v.22a.57.57 0 01-.14.4.56.56 0 01-.41.15h-2.43a.71.71 0 01-.41-.11.33.33 0 01-.14-.26v-.33a4.66 4.66 0 00-1.5-3.59 5.53 5.53 0 00-3.92-1.38 5.44 5.44 0 00-4 1.43 5.06 5.06 0 00-1.49 3.83v9.66a5 5 0 001.54 3.83 5.74 5.74 0 004.06 1.44 5.6 5.6 0 003.85-1.27 4.46 4.46 0 001.42-3.48v-2.81c0-.12-.06-.18-.19-.18h-4.75a.56.56 0 01-.41-.15.53.53 0 01-.14-.4v-1.92a.52.52 0 01.14-.4.56.56 0 01.41-.15h7.92a.5.5 0 01.55.55v4.5a8.54 8.54 0 01-2.41 6.52 9.14 9.14 0 01-6.54 2.28 10.14 10.14 0 01-4.66-1.04zm24.78.61a.54.54 0 01-.15-.4v-24.69a.56.56 0 01.15-.41.54.54 0 01.41-.15h2.43a.52.52 0 01.4.15.56.56 0 01.15.41v24.72a.54.54 0 01-.15.4.52.52 0 01-.4.15h-2.43a.54.54 0 01-.41-.18zm32.32-22.73a.58.58 0 01-.41.14h-12.86c-.12 0-.18.06-.18.19v7.85a.16.16 0 00.18.18h8.77a.54.54 0 01.41.15.54.54 0 01.15.4v2a.54.54 0 01-.15.4.54.54 0 01-.41.15h-8.77a.16.16 0 00-.18.18v8a.16.16 0 00.18.18h12.86a.54.54 0 01.41.15.54.54 0 01.15.4v2a.54.54 0 01-.15.4.54.54 0 01-.41.15h-16a.52.52 0 01-.55-.55v-24.73a.56.56 0 01.15-.41.54.54 0 01.4-.15h16a.54.54 0 01.41.15.56.56 0 01.15.41v1.95a.56.56 0 01-.15.41zm14.08 22.29a7.16 7.16 0 01-3.19-2.51 6.47 6.47 0 01-1.12-3.79v-.89a.53.53 0 01.14-.4.56.56 0 01.41-.15h2.36a.52.52 0 01.55.55v.7a3.72 3.72 0 001.62 3.1 7 7 0 004.31 1.22 5.89 5.89 0 003.83-1.07 3.48 3.48 0 001.29-2.8 3 3 0 00-.66-2 6.45 6.45 0 00-1.93-1.49 39.07 39.07 0 00-3.71-1.64 36.69 36.69 0 01-4.25-1.88 7.8 7.8 0 01-2.6-2.23 5.64 5.64 0 01-1-3.48 6 6 0 012.26-5 9.55 9.55 0 016.14-1.81 11.73 11.73 0 014.79.92 7.49 7.49 0 013.19 2.58 6.66 6.66 0 011.12 3.83v.56a.54.54 0 01-.15.4.52.52 0 01-.4.15h-2.4a.57.57 0 01-.4-.13.44.44 0 01-.15-.35v-.32a4 4 0 00-1.53-3.19 6.4 6.4 0 00-4.22-1.27 5.8 5.8 0 00-3.54.94 3.19 3.19 0 00-1.25 2.71 3.06 3.06 0 00.63 2 5.43 5.43 0 001.86 1.38c.82.4 2.08.93 3.78 1.56a41.71 41.71 0 014.23 1.9 8.07 8.07 0 012.69 2.29 5.63 5.63 0 011.07 3.52 6.35 6.35 0 01-1.07 3.68 6.94 6.94 0 01-3.09 2.47 11.82 11.82 0 01-4.76.88 12.13 12.13 0 01-4.85-.94zM174.98 29.77a32.38 32.38 0 00-25.2 12 32.39 32.39 0 00-57.6 20.36v83.46h14.42V62.18a18 18 0 1136 0v83.41h14.43V62.18a18 18 0 1136 0v83.41h14.43V62.18a32.45 32.45 0 00-32.48-32.41zM29.4 146.75A29.43 29.43 0 010 117.35v-8.49h14.43v8.49a15 15 0 0029.94 0c0-10.14-7.2-15.37-18.93-23.06C14.11 86.85 0 77.59 0 59.16a29.4 29.4 0 0158.79 0v8.49H44.37v-8.49a15 15 0 00-29.94 0c0 10.14 7.19 15.37 18.92 23.06 11.34 7.44 25.44 16.69 25.44 35.13a29.43 29.43 0 01-29.39 29.4zM287.93 29.77a32.45 32.45 0 00-32.41 32.41v83.41h14.43v-49h36v49h14.43V62.18a32.45 32.45 0 00-32.45-32.41zm-18 52.45v-20a18 18 0 1136 0v20z"/><path fill="#fd4c17" d="M328.03 0h-80.19a22.1 22.1 0 00-22.07 22.07v52.52a22.1 22.1 0 0022.07 22.07V82.22a7.65 7.65 0 01-7.65-7.64V22.07a7.65 7.65 0 017.65-7.64h80.19a7.65 7.65 0 017.64 7.64v52.52a7.65 7.65 0 01-7.64 7.64v14.43a22.11 22.11 0 0022.07-22.07V22.07A22.11 22.11 0 00328.03 0z"/></svg>